<mxfile host="app.diagrams.net" modified="2023-03-25T11:32:35.449Z" agent="Mozilla/5.0 (X11; Ubuntu; Linux x86_64; rv:109.0) Gecko/20100101 Firefox/111.0" etag="7lf2UlzL9RK_K1eKHk7P" version="21.1.1" type="device">
  <diagram name="Page-1" id="NcmgKnDqzb22f9BJEb1V">
    <mxGraphModel dx="939" dy="1628" grid="1" gridSize="10" guides="1" tooltips="1" connect="1" arrows="1" fold="1" page="1" pageScale="1" pageWidth="850" pageHeight="1100" math="0" shadow="0">
      <root>
        <mxCell id="0" />
        <mxCell id="1" style="locked=1;" parent="0" />
        <UserObject label="&lt;b&gt;Google &lt;/b&gt;Cloud Platform" tags="zones" id="SbI7NKP9RO1LyGFr6Bwt-1">
          <mxCell style="fillColor=#F6F6F6;strokeColor=none;shadow=0;gradientColor=none;fontSize=14;align=left;spacing=10;fontColor=#717171;9E9E9E;verticalAlign=top;spacingTop=-4;fontStyle=0;spacingLeft=40;html=1;whiteSpace=wrap;" parent="1" vertex="1">
            <mxGeometry x="20" y="-90" width="1120" height="600" as="geometry" />
          </mxCell>
        </UserObject>
        <mxCell id="SbI7NKP9RO1LyGFr6Bwt-2" value="" style="shape=mxgraph.gcp2.google_cloud_platform;fillColor=#F6F6F6;strokeColor=none;shadow=0;gradientColor=none;" parent="SbI7NKP9RO1LyGFr6Bwt-1" vertex="1">
          <mxGeometry width="23" height="20" relative="1" as="geometry">
            <mxPoint x="20" y="10" as="offset" />
          </mxGeometry>
        </mxCell>
        <object label="Ingestion" id="SbI7NKP9RO1LyGFr6Bwt-3">
          <mxCell style="" parent="0" />
        </object>
        <mxCell id="XduflBNYK7NZJnCAo_Pn-45" value="" style="group" vertex="1" connectable="0" parent="SbI7NKP9RO1LyGFr6Bwt-3">
          <mxGeometry x="40" y="-40" width="600" height="140" as="geometry" />
        </mxCell>
        <UserObject label="Ingestion" tags="zones ingestion-resources" id="SbI7NKP9RO1LyGFr6Bwt-13">
          <mxCell style="points=[[0,0,0],[0.25,0,0],[0.5,0,0],[0.75,0,0],[1,0,0],[1,0.25,0],[1,0.5,0],[1,0.75,0],[1,1,0],[0.75,1,0],[0.5,1,0],[0.25,1,0],[0,1,0],[0,0.75,0],[0,0.5,0],[0,0.25,0]];rounded=1;absoluteArcSize=1;arcSize=2;html=1;strokeColor=#FFCC99;gradientColor=none;shadow=0;dashed=0;fontSize=12;fontColor=#9E9E9E;align=left;verticalAlign=top;spacing=10;spacingTop=-4;whiteSpace=wrap;fillColor=#F1F8E9;" parent="XduflBNYK7NZJnCAo_Pn-45" vertex="1">
            <mxGeometry width="600" height="140" as="geometry" />
          </mxCell>
        </UserObject>
        <UserObject label="" tags="storage ingestion-resources" id="SbI7NKP9RO1LyGFr6Bwt-6">
          <mxCell style="strokeColor=#dddddd;shadow=1;strokeWidth=1;rounded=1;absoluteArcSize=1;arcSize=2;" parent="XduflBNYK7NZJnCAo_Pn-45" vertex="1">
            <mxGeometry x="20" y="40" width="200" height="60" as="geometry" />
          </mxCell>
        </UserObject>
        <mxCell id="SbI7NKP9RO1LyGFr6Bwt-7" value="&lt;font color=&quot;#000000&quot;&gt;my-data-landing-zone&lt;/font&gt;&lt;br&gt;Cloud Storage" style="editableCssRules=.*;html=1;fontColor=#999999;shape=image;verticalLabelPosition=middle;labelBackgroundColor=#ffffff;verticalAlign=middle;labelPosition=right;align=left;spacingLeft=20;part=1;points=[];imageAspect=0;image=data:image/svg+xml,PHN2ZyB4bWxucz0iaHR0cDovL3d3dy53My5vcmcvMjAwMC9zdmciIHhtbG5zOnY9Imh0dHBzOi8vdmVjdGEuaW8vbmFubyIgd2lkdGg9IjIwIiBoZWlnaHQ9IjE2IiB2aWV3Qm94PSIwIDAgMjAgMTYiPiYjeGE7CTxzdHlsZSB0eXBlPSJ0ZXh0L2NzcyI+JiN4YTsJLnN0MHtmaWxsOiM0Mjg1ZjQ7fSYjeGE7CS5zdDF7ZmlsbDojNjY5ZGY2O30mI3hhOwkuc3Qye2ZpbGw6I2FlY2JmYTt9JiN4YTsJLnN0M3tmaWxsOiNmZmY7fSYjeGE7CTwvc3R5bGU+JiN4YTsJPHBhdGggY2xhc3M9InN0MiIgZD0iTTAgMGgyMHY3SDB6Ii8+JiN4YTsJPHBhdGggY2xhc3M9InN0MSIgZD0iTTE4IDBoMnY3aC0yeiIvPiYjeGE7CTxwYXRoIGNsYXNzPSJzdDAiIGQ9Ik0xOCA3bDItN2gtMnoiLz4mI3hhOwk8cGF0aCBjbGFzcz0ic3QxIiBkPSJNMCAwaDJ2N0gweiIvPiYjeGE7CTxnIGNsYXNzPSJzdDMiPiYjeGE7CQk8cGF0aCBkPSJNNCAzaDZ2MUg0eiIvPiYjeGE7CQk8cmVjdCB4PSIxMyIgeT0iMiIgd2lkdGg9IjMiIGhlaWdodD0iMyIgcng9IjEuNSIvPiYjeGE7CTwvZz4mI3hhOwk8cGF0aCBjbGFzcz0ic3QyIiBkPSJNMCA5aDIwdjdIMHoiLz4mI3hhOwk8cGF0aCBjbGFzcz0ic3QxIiBkPSJNMTggOWgydjdoLTJ6Ii8+JiN4YTsJPHBhdGggY2xhc3M9InN0MCIgZD0iTTE4IDE2bDItN2gtMnoiLz4mI3hhOwk8cGF0aCBjbGFzcz0ic3QxIiBkPSJNMCA5aDJ2N0gweiIvPiYjeGE7CTxnIGNsYXNzPSJzdDMiPiYjeGE7CQk8cGF0aCBkPSJNNCAxMmg2djFINHoiLz4mI3hhOwkJPHJlY3QgeD0iMTMiIHk9IjExIiB3aWR0aD0iMyIgaGVpZ2h0PSIzIiByeD0iMS41Ii8+JiN4YTsJPC9nPiYjeGE7PC9zdmc+;" parent="SbI7NKP9RO1LyGFr6Bwt-6" vertex="1">
          <mxGeometry width="30" height="24" relative="1" as="geometry">
            <mxPoint x="15" y="18" as="offset" />
          </mxGeometry>
        </mxCell>
        <UserObject label="" tags="Compute ingestion-resources" id="SbI7NKP9RO1LyGFr6Bwt-11">
          <mxCell style="strokeColor=#dddddd;shadow=1;strokeWidth=1;rounded=1;absoluteArcSize=1;arcSize=2;" parent="XduflBNYK7NZJnCAo_Pn-45" vertex="1">
            <mxGeometry x="384.99" y="40" width="180" height="60" as="geometry" />
          </mxCell>
        </UserObject>
        <UserObject label="&lt;font color=&quot;#000000&quot;&gt;ingest_data&lt;/font&gt;&lt;br&gt;Cloud Functions" tags="Compute ingestion-resources" id="SbI7NKP9RO1LyGFr6Bwt-12">
          <mxCell style="editableCssRules=.*;html=1;fontColor=#999999;shape=image;verticalLabelPosition=middle;labelBackgroundColor=#ffffff;verticalAlign=middle;labelPosition=right;align=left;spacingLeft=20;part=1;points=[];imageAspect=0;image=data:image/svg+xml,PHN2ZyB4bWxucz0iaHR0cDovL3d3dy53My5vcmcvMjAwMC9zdmciIHhtbG5zOnY9Imh0dHBzOi8vdmVjdGEuaW8vbmFubyIgd2lkdGg9IjIwIiBoZWlnaHQ9IjE5Ljk4OTk5OTc3MTExODE2NCIgdmlld0JveD0iMCAwIDIwIDE5Ljk4OTk5OTc3MTExODE2NCI+JiN4YTsJPHN0eWxlIHR5cGU9InRleHQvY3NzIj4mI3hhOwkuc3Qwe2ZpbGw6IzQyODVmNDt9JiN4YTsJLnN0MXtmaWxsOiM2NjlkZjY7fSYjeGE7CS5zdDJ7ZmlsbDojYWVjYmZhO30mI3hhOwk8L3N0eWxlPiYjeGE7CTxwYXRoIGNsYXNzPSJzdDEiIGQ9Ik0zIDMuOTlMMCA2LjQydjcuMTNsMyAyLjQ0eiIvPiYjeGE7CTxwYXRoIGNsYXNzPSJzdDAiIGQ9Ik0zIDMuOTlsLTMgNCAzLTJ6bS0zIDhsMyA0di0yeiIvPiYjeGE7CTxwYXRoIGNsYXNzPSJzdDIiIGQ9Ik0wIDE1Ljk5bDQgNCAyLTItNi02em0uMDEtOEw1Ljk5IDJsLTItMkwwIDMuOTl6Ii8+JiN4YTsJPHBhdGggY2xhc3M9InN0MSIgZD0iTTE3IDE2bDMtMi40MlY2LjQ0TDE3IDR6Ii8+JiN4YTsJPHBhdGggY2xhc3M9InN0MCIgZD0iTTE3IDE2bDMtNC0zIDJ6bTMtOGwtMy00djJ6Ii8+JiN4YTsJPGcgY2xhc3M9InN0MiI+JiN4YTsJCTxwYXRoIGQ9Ik0yMCA0bC00LTQtMiAyIDYgNnptLS4wMSA4bC01Ljk4IDUuOTkgMiAyTDIwIDE2eiIvPiYjeGE7CQk8Y2lyY2xlIGN4PSI2IiBjeT0iOS45OSIgcj0iMSIvPiYjeGE7CQk8Y2lyY2xlIGN4PSIxMCIgY3k9IjkuOTkiIHI9IjEiLz4mI3hhOwkJPGNpcmNsZSBjeD0iMTMuOTkiIGN5PSI5Ljk5IiByPSIxIi8+JiN4YTsJPC9nPiYjeGE7PC9zdmc+;" parent="SbI7NKP9RO1LyGFr6Bwt-11" vertex="1">
            <mxGeometry width="30" height="24" relative="1" as="geometry">
              <mxPoint x="15" y="18" as="offset" />
            </mxGeometry>
          </mxCell>
        </UserObject>
        <UserObject label="" tags="Arrows hints-arrows-ingestion ingestion-resources" id="XduflBNYK7NZJnCAo_Pn-7">
          <mxCell style="edgeStyle=orthogonalEdgeStyle;fontSize=12;html=1;endArrow=blockThin;endFill=1;rounded=0;strokeWidth=2;endSize=4;startSize=4;dashed=1;dashPattern=1 3;strokeColor=#4284F3;exitX=1;exitY=0.5;exitDx=0;exitDy=0;entryX=0;entryY=0.5;entryDx=0;entryDy=0;" edge="1" parent="XduflBNYK7NZJnCAo_Pn-45" source="SbI7NKP9RO1LyGFr6Bwt-6" target="SbI7NKP9RO1LyGFr6Bwt-11">
            <mxGeometry width="100" relative="1" as="geometry">
              <mxPoint x="240" y="69.5" as="sourcePoint" />
              <mxPoint x="340" y="69.5" as="targetPoint" />
              <Array as="points" />
            </mxGeometry>
          </mxCell>
        </UserObject>
        <object label="Warehouse" id="SbI7NKP9RO1LyGFr6Bwt-10">
          <mxCell style="" parent="0" />
        </object>
        <UserObject label="Warehouse" tags="zones ingestion-resources" id="SbI7NKP9RO1LyGFr6Bwt-16">
          <mxCell style="sketch=0;points=[[0,0,0],[0.25,0,0],[0.5,0,0],[0.75,0,0],[1,0,0],[1,0.25,0],[1,0.5,0],[1,0.75,0],[1,1,0],[0.75,1,0],[0.5,1,0],[0.25,1,0],[0,1,0],[0,0.75,0],[0,0.5,0],[0,0.25,0]];rounded=1;absoluteArcSize=1;arcSize=2;html=1;strokeColor=none;gradientColor=none;shadow=0;dashed=0;fontSize=12;fontColor=#9E9E9E;align=left;verticalAlign=top;spacing=10;spacingTop=-4;whiteSpace=wrap;fillColor=#F1F8E9;" parent="SbI7NKP9RO1LyGFr6Bwt-10" vertex="1">
            <mxGeometry x="680" y="-60" width="410" height="160" as="geometry" />
          </mxCell>
        </UserObject>
        <UserObject label="" tags="Tables ingestion-resources" id="XduflBNYK7NZJnCAo_Pn-5">
          <mxCell style="strokeColor=#dddddd;shadow=1;strokeWidth=1;rounded=1;absoluteArcSize=1;arcSize=2;" vertex="1" parent="SbI7NKP9RO1LyGFr6Bwt-10">
            <mxGeometry x="700" width="160" height="60" as="geometry" />
          </mxCell>
        </UserObject>
        <mxCell id="XduflBNYK7NZJnCAo_Pn-6" value="&lt;font color=&quot;#000000&quot;&gt;training_data&lt;/font&gt;&lt;br&gt;BigQuery" style="editableCssRules=.*;html=1;fontColor=#999999;shape=image;verticalLabelPosition=middle;labelBackgroundColor=#ffffff;verticalAlign=middle;labelPosition=right;align=left;spacingLeft=20;part=1;points=[];imageAspect=0;image=data:image/svg+xml,PHN2ZyB4bWxucz0iaHR0cDovL3d3dy53My5vcmcvMjAwMC9zdmciIHhtbG5zOnY9Imh0dHBzOi8vdmVjdGEuaW8vbmFubyIgd2lkdGg9IjIwLjAwMTA0NTIyNzA1MDc4IiBoZWlnaHQ9IjIwLjAwMTA0NTIyNzA1MDc4IiBmaWxsLXJ1bGU9ImV2ZW5vZGQiIHZpZXdCb3g9IjAgMCAyMC4wMDEwNDUyMjcwNTA3OCAyMC4wMDEwNDUyMjcwNTA3OCI+JiN4YTsJPHN0eWxlIHR5cGU9InRleHQvY3NzIj4mI3hhOwkuc3Qwe2ZpbGw6I2FlY2JmYTt9JiN4YTsJLnN0MXtmaWxsOiM2NjlkZjY7fSYjeGE7CS5zdDJ7ZmlsbDojNDI4NWY0O30mI3hhOwk8L3N0eWxlPiYjeGE7CTxwYXRoIGNsYXNzPSJzdDAiIGQ9Ik00LjczIDguODN2Mi42M2E0LjkxIDQuOTEgMCAwIDAgMS43MSAxLjc0VjguODN6Ii8+JiN4YTsJPHBhdGggY2xhc3M9InN0MSIgZD0iTTcuODkgNi40MXY3LjUzQTcuNjIgNy42MiAwIDAgMCA5IDE0YTggOCAwIDAgMCAxIDBWNi40MXoiLz4mI3hhOwk8cGF0aCBjbGFzcz0ic3QwIiBkPSJNMTEuNjQgOS44NnYzLjI5YTUgNSAwIDAgMCAxLjctMS44MlY5Ljg2eiIvPiYjeGE7CTxwYXRoIGNsYXNzPSJzdDIiIGQ9Ik0xNS43NCAxNC4zMmwtMS40MiAxLjQyYS40Mi40MiAwIDAgMCAwIC42bDMuNTQgMy41NGEuNDIuNDIgMCAwIDAgLjU5IDBsMS40My0xLjQzYS40Mi40MiAwIDAgMCAwLS41OWwtMy41NC0zLjU0YS40Mi40MiAwIDAgMC0uNiAwIi8+JiN4YTsJPHBhdGggY2xhc3M9InN0MSIgZD0iTTkgMGE5IDkgMCAxIDAgMCAxOEE5IDkgMCAxIDAgOSAwbTAgMTUuNjlhNi42OCA2LjY4IDAgMCAxIC4wMDctMTMuMzYgNi42OCA2LjY4IDAgMCAxIDQuNzI3IDExLjQwM0E2LjY4IDYuNjggMCAwIDEgOSAxNS42OSIvPiYjeGE7PC9zdmc+;" vertex="1" parent="XduflBNYK7NZJnCAo_Pn-5">
          <mxGeometry width="30" height="30" relative="1" as="geometry">
            <mxPoint x="15" y="15" as="offset" />
          </mxGeometry>
        </mxCell>
        <UserObject label="" tags="Tables predictions-resources" id="XduflBNYK7NZJnCAo_Pn-46">
          <mxCell style="strokeColor=#dddddd;shadow=1;strokeWidth=1;rounded=1;absoluteArcSize=1;arcSize=2;" vertex="1" parent="SbI7NKP9RO1LyGFr6Bwt-10">
            <mxGeometry x="900" width="170" height="60" as="geometry" />
          </mxCell>
        </UserObject>
        <mxCell id="XduflBNYK7NZJnCAo_Pn-47" value="&lt;font color=&quot;#000000&quot;&gt;predictions_data&lt;/font&gt;&lt;br&gt;BigQuery" style="editableCssRules=.*;html=1;fontColor=#999999;shape=image;verticalLabelPosition=middle;labelBackgroundColor=#ffffff;verticalAlign=middle;labelPosition=right;align=left;spacingLeft=20;part=1;points=[];imageAspect=0;image=data:image/svg+xml,PHN2ZyB4bWxucz0iaHR0cDovL3d3dy53My5vcmcvMjAwMC9zdmciIHhtbG5zOnY9Imh0dHBzOi8vdmVjdGEuaW8vbmFubyIgd2lkdGg9IjIwLjAwMTA0NTIyNzA1MDc4IiBoZWlnaHQ9IjIwLjAwMTA0NTIyNzA1MDc4IiBmaWxsLXJ1bGU9ImV2ZW5vZGQiIHZpZXdCb3g9IjAgMCAyMC4wMDEwNDUyMjcwNTA3OCAyMC4wMDEwNDUyMjcwNTA3OCI+JiN4YTsJPHN0eWxlIHR5cGU9InRleHQvY3NzIj4mI3hhOwkuc3Qwe2ZpbGw6I2FlY2JmYTt9JiN4YTsJLnN0MXtmaWxsOiM2NjlkZjY7fSYjeGE7CS5zdDJ7ZmlsbDojNDI4NWY0O30mI3hhOwk8L3N0eWxlPiYjeGE7CTxwYXRoIGNsYXNzPSJzdDAiIGQ9Ik00LjczIDguODN2Mi42M2E0LjkxIDQuOTEgMCAwIDAgMS43MSAxLjc0VjguODN6Ii8+JiN4YTsJPHBhdGggY2xhc3M9InN0MSIgZD0iTTcuODkgNi40MXY3LjUzQTcuNjIgNy42MiAwIDAgMCA5IDE0YTggOCAwIDAgMCAxIDBWNi40MXoiLz4mI3hhOwk8cGF0aCBjbGFzcz0ic3QwIiBkPSJNMTEuNjQgOS44NnYzLjI5YTUgNSAwIDAgMCAxLjctMS44MlY5Ljg2eiIvPiYjeGE7CTxwYXRoIGNsYXNzPSJzdDIiIGQ9Ik0xNS43NCAxNC4zMmwtMS40MiAxLjQyYS40Mi40MiAwIDAgMCAwIC42bDMuNTQgMy41NGEuNDIuNDIgMCAwIDAgLjU5IDBsMS40My0xLjQzYS40Mi40MiAwIDAgMCAwLS41OWwtMy41NC0zLjU0YS40Mi40MiAwIDAgMC0uNiAwIi8+JiN4YTsJPHBhdGggY2xhc3M9InN0MSIgZD0iTTkgMGE5IDkgMCAxIDAgMCAxOEE5IDkgMCAxIDAgOSAwbTAgMTUuNjlhNi42OCA2LjY4IDAgMCAxIC4wMDctMTMuMzYgNi42OCA2LjY4IDAgMCAxIDQuNzI3IDExLjQwM0E2LjY4IDYuNjggMCAwIDEgOSAxNS42OSIvPiYjeGE7PC9zdmc+;" vertex="1" parent="XduflBNYK7NZJnCAo_Pn-46">
          <mxGeometry width="30" height="30" relative="1" as="geometry">
            <mxPoint x="15" y="15" as="offset" />
          </mxGeometry>
        </mxCell>
        <object label="Integrations" id="XduflBNYK7NZJnCAo_Pn-9">
          <mxCell style="" parent="0" />
        </object>
        <UserObject label="" tags="Arrows hints-arrows-ingestion ingestion-resources" id="XduflBNYK7NZJnCAo_Pn-10">
          <mxCell style="edgeStyle=orthogonalEdgeStyle;fontSize=12;html=1;endArrow=blockThin;endFill=1;rounded=0;strokeWidth=2;endSize=4;startSize=4;dashed=1;dashPattern=1 3;strokeColor=#4284F3;exitX=1;exitY=0.5;exitDx=0;exitDy=0;entryX=0;entryY=0.5;entryDx=0;entryDy=0;" edge="1" parent="XduflBNYK7NZJnCAo_Pn-9" source="SbI7NKP9RO1LyGFr6Bwt-11" target="XduflBNYK7NZJnCAo_Pn-5">
            <mxGeometry width="100" relative="1" as="geometry">
              <mxPoint x="560" y="260" as="sourcePoint" />
              <mxPoint x="660" y="260" as="targetPoint" />
            </mxGeometry>
          </mxCell>
        </UserObject>
        <UserObject label="" tags="hints-arrows-ingestion Arrows ingestion-resources" id="XduflBNYK7NZJnCAo_Pn-11">
          <mxCell style="edgeStyle=orthogonalEdgeStyle;fontSize=12;html=1;endArrow=blockThin;endFill=1;rounded=0;strokeWidth=2;endSize=4;startSize=4;strokeColor=#34A853;dashed=0;exitX=0.5;exitY=1;exitDx=0;exitDy=0;" edge="1" parent="XduflBNYK7NZJnCAo_Pn-9" source="SbI7NKP9RO1LyGFr6Bwt-11" target="XduflBNYK7NZJnCAo_Pn-13">
            <mxGeometry width="100" relative="1" as="geometry">
              <mxPoint x="700" y="170" as="sourcePoint" />
              <mxPoint x="515" y="10" as="targetPoint" />
            </mxGeometry>
          </mxCell>
        </UserObject>
        <UserObject label="" tags="transport ingestion-resources" id="XduflBNYK7NZJnCAo_Pn-13">
          <mxCell style="strokeColor=#dddddd;shadow=1;strokeWidth=1;rounded=1;absoluteArcSize=1;arcSize=2;" vertex="1" parent="XduflBNYK7NZJnCAo_Pn-9">
            <mxGeometry x="418" y="160" width="195" height="60" as="geometry" />
          </mxCell>
        </UserObject>
        <mxCell id="XduflBNYK7NZJnCAo_Pn-14" value="&lt;font color=&quot;#000000&quot;&gt;ingestion_complete&lt;/font&gt;&lt;br&gt;Pub/Sub" style="editableCssRules=.*;html=1;fontColor=#999999;shape=image;verticalLabelPosition=middle;labelBackgroundColor=#ffffff;verticalAlign=middle;labelPosition=right;align=left;spacingLeft=20;part=1;points=[];imageAspect=0;image=data:image/svg+xml,PHN2ZyB4bWxucz0iaHR0cDovL3d3dy53My5vcmcvMjAwMC9zdmciIHhtbG5zOnY9Imh0dHBzOi8vdmVjdGEuaW8vbmFubyIgd2lkdGg9IjE4LjMxOTk5OTY5NDgyNDIyIiBoZWlnaHQ9IjIwLjAwMDAwMTkwNzM0ODYzMyIgdmlld0JveD0iMCAwIDE4LjMxOTk5OTY5NDgyNDIyIDIwLjAwMDAwMTkwNzM0ODYzMyI+JiN4YTsJPHN0eWxlIHR5cGU9InRleHQvY3NzIj4mI3hhOwkuc3Qwe2ZpbGw6IzY2OWRmNjt9JiN4YTsJLnN0MXtmaWxsOiM0Mjg1ZjQ7fSYjeGE7CS5zdDJ7ZmlsbDojYWVjYmZhO30mI3hhOwk8L3N0eWxlPiYjeGE7CTxkZWZzPiYjeGE7CQk8ZmlsdGVyIGlkPSJBIiB4PSI0LjY0IiB5PSI0LjE5IiB3aWR0aD0iMTQuNzMiIGhlaWdodD0iMTIuNzYiIGZpbHRlclVuaXRzPSJ1c2VyU3BhY2VPblVzZSIgY29sb3ItaW50ZXJwb2xhdGlvbi1maWx0ZXJzPSJzUkdCIj4mI3hhOwkJCTxmZUZsb29kIGZsb29kLWNvbG9yPSIjZmZmIi8+JiN4YTsJCQk8ZmVCbGVuZCBpbj0iU291cmNlR3JhcGhpYyIvPiYjeGE7CQk8L2ZpbHRlcj4mI3hhOwkJPG1hc2sgaWQ9IkIiIHg9IjQuNjQiIHk9IjQuMTkiIHdpZHRoPSIxNC43MyIgaGVpZ2h0PSIxMi43NiIgbWFza1VuaXRzPSJ1c2VyU3BhY2VPblVzZSI+JiN4YTsJCQk8Y2lyY2xlIGN4PSIxMiIgY3k9IjEyLjIzIiByPSIzLjU4IiBmaWx0ZXI9InVybCgjQSkiLz4mI3hhOwkJPC9tYXNrPiYjeGE7CTwvZGVmcz4mI3hhOwk8ZyBjbGFzcz0ic3QwIj4mI3hhOwkJPGNpcmNsZSBjeD0iMTYuMTMiIGN5PSI2LjIxIiByPSIxLjcyIi8+JiN4YTsJCTxjaXJjbGUgY3g9IjIuMTkiIGN5PSI2LjIxIiByPSIxLjcyIi8+JiN4YTsJCTxjaXJjbGUgY3g9IjkuMTYiIGN5PSIxOC4yOCIgcj0iMS43MiIvPiYjeGE7CTwvZz4mI3hhOwk8ZyBtYXNrPSJ1cmwoI0IpIiB0cmFuc2Zvcm09InRyYW5zbGF0ZSgtMi44NCAtMikiPiYjeGE7CQk8cGF0aCB0cmFuc2Zvcm09Im1hdHJpeCguNSAtLjg3IC44NyAuNSAtNC41OSAyMC41MykiIGQ9Ik0xNC42OSAxMC4yMmgxLjU5djguMDRoLTEuNTl6IiBjbGFzcz0ic3QxIi8+JiN4YTsJCTxwYXRoIHRyYW5zZm9ybT0icm90YXRlKDMzMCA4LjUyMyAxNC4yNDQpIiBkPSJNNC40OSAxMy40NWg4LjA0djEuNTlINC40OXoiIGNsYXNzPSJzdDEiLz4mI3hhOwkJPHBhdGggZD0iTTExLjIgNC4xOWgxLjU5djguMDRIMTEuMnoiIGNsYXNzPSJzdDEiLz4mI3hhOwk8L2c+JiN4YTsJPGcgY2xhc3M9InN0MiI+JiN4YTsJCTxjaXJjbGUgY3g9IjkuMTYiIGN5PSIxMC4yMyIgcj0iMi43OCIvPiYjeGE7CQk8Y2lyY2xlIGN4PSIyLjE5IiBjeT0iMTQuMjUiIHI9IjIuMTkiLz4mI3hhOwkJPGNpcmNsZSBjeD0iMTYuMTMiIGN5PSIxNC4yNSIgcj0iMi4xOSIvPiYjeGE7CQk8Y2lyY2xlIGN4PSI5LjE2IiBjeT0iMi4xOSIgcj0iMi4xOSIvPiYjeGE7CTwvZz4mI3hhOzwvc3ZnPg==;" vertex="1" parent="XduflBNYK7NZJnCAo_Pn-13">
          <mxGeometry width="27" height="30" relative="1" as="geometry">
            <mxPoint x="16" y="15" as="offset" />
          </mxGeometry>
        </mxCell>
        <UserObject label="" tags="Arrows" id="XduflBNYK7NZJnCAo_Pn-21">
          <mxCell style="edgeStyle=orthogonalEdgeStyle;fontSize=12;html=1;endArrow=blockThin;endFill=1;rounded=0;strokeWidth=2;endSize=4;startSize=4;dashed=1;dashPattern=1 3;strokeColor=#4284F3;exitX=0.5;exitY=1;exitDx=0;exitDy=0;entryX=0.5;entryY=0;entryDx=0;entryDy=0;" edge="1" parent="XduflBNYK7NZJnCAo_Pn-9" source="XduflBNYK7NZJnCAo_Pn-5" target="XduflBNYK7NZJnCAo_Pn-15">
            <mxGeometry width="100" relative="1" as="geometry">
              <mxPoint x="520" y="240" as="sourcePoint" />
              <mxPoint x="620" y="240" as="targetPoint" />
            </mxGeometry>
          </mxCell>
        </UserObject>
        <object label="Models" id="XduflBNYK7NZJnCAo_Pn-12">
          <mxCell style="" parent="0" />
        </object>
        <UserObject label="" tags="Compute" id="XduflBNYK7NZJnCAo_Pn-15">
          <mxCell style="strokeColor=#dddddd;shadow=1;strokeWidth=1;rounded=1;absoluteArcSize=1;arcSize=2;" vertex="1" parent="XduflBNYK7NZJnCAo_Pn-12">
            <mxGeometry x="700" y="160" width="160" height="60" as="geometry" />
          </mxCell>
        </UserObject>
        <mxCell id="XduflBNYK7NZJnCAo_Pn-16" value="&lt;font color=&quot;#000000&quot;&gt;train_model&lt;/font&gt;&lt;br&gt;Cloud Functions" style="editableCssRules=.*;html=1;fontColor=#999999;shape=image;verticalLabelPosition=middle;labelBackgroundColor=#ffffff;verticalAlign=middle;labelPosition=right;align=left;spacingLeft=20;part=1;points=[];imageAspect=0;image=data:image/svg+xml,PHN2ZyB4bWxucz0iaHR0cDovL3d3dy53My5vcmcvMjAwMC9zdmciIHhtbG5zOnY9Imh0dHBzOi8vdmVjdGEuaW8vbmFubyIgd2lkdGg9IjIwIiBoZWlnaHQ9IjE5Ljk4OTk5OTc3MTExODE2NCIgdmlld0JveD0iMCAwIDIwIDE5Ljk4OTk5OTc3MTExODE2NCI+JiN4YTsJPHN0eWxlIHR5cGU9InRleHQvY3NzIj4mI3hhOwkuc3Qwe2ZpbGw6IzQyODVmNDt9JiN4YTsJLnN0MXtmaWxsOiM2NjlkZjY7fSYjeGE7CS5zdDJ7ZmlsbDojYWVjYmZhO30mI3hhOwk8L3N0eWxlPiYjeGE7CTxwYXRoIGNsYXNzPSJzdDEiIGQ9Ik0zIDMuOTlMMCA2LjQydjcuMTNsMyAyLjQ0eiIvPiYjeGE7CTxwYXRoIGNsYXNzPSJzdDAiIGQ9Ik0zIDMuOTlsLTMgNCAzLTJ6bS0zIDhsMyA0di0yeiIvPiYjeGE7CTxwYXRoIGNsYXNzPSJzdDIiIGQ9Ik0wIDE1Ljk5bDQgNCAyLTItNi02em0uMDEtOEw1Ljk5IDJsLTItMkwwIDMuOTl6Ii8+JiN4YTsJPHBhdGggY2xhc3M9InN0MSIgZD0iTTE3IDE2bDMtMi40MlY2LjQ0TDE3IDR6Ii8+JiN4YTsJPHBhdGggY2xhc3M9InN0MCIgZD0iTTE3IDE2bDMtNC0zIDJ6bTMtOGwtMy00djJ6Ii8+JiN4YTsJPGcgY2xhc3M9InN0MiI+JiN4YTsJCTxwYXRoIGQ9Ik0yMCA0bC00LTQtMiAyIDYgNnptLS4wMSA4bC01Ljk4IDUuOTkgMiAyTDIwIDE2eiIvPiYjeGE7CQk8Y2lyY2xlIGN4PSI2IiBjeT0iOS45OSIgcj0iMSIvPiYjeGE7CQk8Y2lyY2xlIGN4PSIxMCIgY3k9IjkuOTkiIHI9IjEiLz4mI3hhOwkJPGNpcmNsZSBjeD0iMTMuOTkiIGN5PSI5Ljk5IiByPSIxIi8+JiN4YTsJPC9nPiYjeGE7PC9zdmc+;" vertex="1" parent="XduflBNYK7NZJnCAo_Pn-15">
          <mxGeometry width="30" height="24" relative="1" as="geometry">
            <mxPoint x="15" y="18" as="offset" />
          </mxGeometry>
        </mxCell>
        <UserObject label="" tags="Arrows" id="XduflBNYK7NZJnCAo_Pn-19">
          <mxCell style="edgeStyle=orthogonalEdgeStyle;fontSize=12;html=1;endArrow=blockThin;endFill=1;rounded=0;strokeWidth=2;endSize=4;startSize=4;dashed=0;strokeColor=#4284F3;entryX=0;entryY=0.5;entryDx=0;entryDy=0;exitX=1;exitY=0.5;exitDx=0;exitDy=0;" edge="1" parent="XduflBNYK7NZJnCAo_Pn-12" source="XduflBNYK7NZJnCAo_Pn-13" target="XduflBNYK7NZJnCAo_Pn-15">
            <mxGeometry width="100" relative="1" as="geometry">
              <mxPoint x="520" y="240" as="sourcePoint" />
              <mxPoint x="620" y="240" as="targetPoint" />
            </mxGeometry>
          </mxCell>
        </UserObject>
        <UserObject label="" tags="storage" id="XduflBNYK7NZJnCAo_Pn-38">
          <mxCell style="strokeColor=#dddddd;shadow=1;strokeWidth=1;rounded=1;absoluteArcSize=1;arcSize=2;" vertex="1" parent="XduflBNYK7NZJnCAo_Pn-12">
            <mxGeometry x="400" y="350" width="200" height="60" as="geometry" />
          </mxCell>
        </UserObject>
        <mxCell id="XduflBNYK7NZJnCAo_Pn-39" value="&lt;font color=&quot;#000000&quot;&gt;my-model-storage&lt;/font&gt;&lt;br&gt;Cloud Storage" style="editableCssRules=.*;html=1;fontColor=#999999;shape=image;verticalLabelPosition=middle;labelBackgroundColor=#ffffff;verticalAlign=middle;labelPosition=right;align=left;spacingLeft=20;part=1;points=[];imageAspect=0;image=data:image/svg+xml,PHN2ZyB4bWxucz0iaHR0cDovL3d3dy53My5vcmcvMjAwMC9zdmciIHhtbG5zOnY9Imh0dHBzOi8vdmVjdGEuaW8vbmFubyIgd2lkdGg9IjIwIiBoZWlnaHQ9IjE2IiB2aWV3Qm94PSIwIDAgMjAgMTYiPiYjeGE7CTxzdHlsZSB0eXBlPSJ0ZXh0L2NzcyI+JiN4YTsJLnN0MHtmaWxsOiM0Mjg1ZjQ7fSYjeGE7CS5zdDF7ZmlsbDojNjY5ZGY2O30mI3hhOwkuc3Qye2ZpbGw6I2FlY2JmYTt9JiN4YTsJLnN0M3tmaWxsOiNmZmY7fSYjeGE7CTwvc3R5bGU+JiN4YTsJPHBhdGggY2xhc3M9InN0MiIgZD0iTTAgMGgyMHY3SDB6Ii8+JiN4YTsJPHBhdGggY2xhc3M9InN0MSIgZD0iTTE4IDBoMnY3aC0yeiIvPiYjeGE7CTxwYXRoIGNsYXNzPSJzdDAiIGQ9Ik0xOCA3bDItN2gtMnoiLz4mI3hhOwk8cGF0aCBjbGFzcz0ic3QxIiBkPSJNMCAwaDJ2N0gweiIvPiYjeGE7CTxnIGNsYXNzPSJzdDMiPiYjeGE7CQk8cGF0aCBkPSJNNCAzaDZ2MUg0eiIvPiYjeGE7CQk8cmVjdCB4PSIxMyIgeT0iMiIgd2lkdGg9IjMiIGhlaWdodD0iMyIgcng9IjEuNSIvPiYjeGE7CTwvZz4mI3hhOwk8cGF0aCBjbGFzcz0ic3QyIiBkPSJNMCA5aDIwdjdIMHoiLz4mI3hhOwk8cGF0aCBjbGFzcz0ic3QxIiBkPSJNMTggOWgydjdoLTJ6Ii8+JiN4YTsJPHBhdGggY2xhc3M9InN0MCIgZD0iTTE4IDE2bDItN2gtMnoiLz4mI3hhOwk8cGF0aCBjbGFzcz0ic3QxIiBkPSJNMCA5aDJ2N0gweiIvPiYjeGE7CTxnIGNsYXNzPSJzdDMiPiYjeGE7CQk8cGF0aCBkPSJNNCAxMmg2djFINHoiLz4mI3hhOwkJPHJlY3QgeD0iMTMiIHk9IjExIiB3aWR0aD0iMyIgaGVpZ2h0PSIzIiByeD0iMS41Ii8+JiN4YTsJPC9nPiYjeGE7PC9zdmc+;" vertex="1" parent="XduflBNYK7NZJnCAo_Pn-38">
          <mxGeometry width="30" height="24" relative="1" as="geometry">
            <mxPoint x="15" y="18" as="offset" />
          </mxGeometry>
        </mxCell>
        <UserObject label="" tags="Arrows" id="XduflBNYK7NZJnCAo_Pn-40">
          <mxCell style="edgeStyle=orthogonalEdgeStyle;fontSize=12;html=1;endArrow=blockThin;endFill=1;rounded=0;strokeWidth=2;endSize=4;startSize=4;dashed=1;dashPattern=1 3;strokeColor=#4284F3;exitX=0.5;exitY=1;exitDx=0;exitDy=0;entryX=0.5;entryY=0;entryDx=0;entryDy=0;" edge="1" parent="XduflBNYK7NZJnCAo_Pn-12" source="XduflBNYK7NZJnCAo_Pn-15" target="XduflBNYK7NZJnCAo_Pn-38">
            <mxGeometry width="100" relative="1" as="geometry">
              <mxPoint x="697" y="380" as="sourcePoint" />
              <mxPoint x="797" y="380" as="targetPoint" />
            </mxGeometry>
          </mxCell>
        </UserObject>
        <object label="Predictions" id="XduflBNYK7NZJnCAo_Pn-48">
          <mxCell style="" parent="0" />
        </object>
        <UserObject label="" tags="predictions-resources Compute" id="XduflBNYK7NZJnCAo_Pn-49">
          <mxCell style="strokeColor=#dddddd;shadow=1;strokeWidth=1;rounded=1;absoluteArcSize=1;arcSize=2;" vertex="1" parent="XduflBNYK7NZJnCAo_Pn-48">
            <mxGeometry x="885" y="350" width="200" height="60" as="geometry" />
          </mxCell>
        </UserObject>
        <mxCell id="XduflBNYK7NZJnCAo_Pn-50" value="&lt;font color=&quot;#000000&quot;&gt;predictions_endpoint&lt;/font&gt;&lt;br&gt;Cloud Functions" style="editableCssRules=.*;html=1;fontColor=#999999;shape=image;verticalLabelPosition=middle;labelBackgroundColor=#ffffff;verticalAlign=middle;labelPosition=right;align=left;spacingLeft=20;part=1;points=[];imageAspect=0;image=data:image/svg+xml,PHN2ZyB4bWxucz0iaHR0cDovL3d3dy53My5vcmcvMjAwMC9zdmciIHhtbG5zOnY9Imh0dHBzOi8vdmVjdGEuaW8vbmFubyIgd2lkdGg9IjIwIiBoZWlnaHQ9IjE5Ljk4OTk5OTc3MTExODE2NCIgdmlld0JveD0iMCAwIDIwIDE5Ljk4OTk5OTc3MTExODE2NCI+JiN4YTsJPHN0eWxlIHR5cGU9InRleHQvY3NzIj4mI3hhOwkuc3Qwe2ZpbGw6IzQyODVmNDt9JiN4YTsJLnN0MXtmaWxsOiM2NjlkZjY7fSYjeGE7CS5zdDJ7ZmlsbDojYWVjYmZhO30mI3hhOwk8L3N0eWxlPiYjeGE7CTxwYXRoIGNsYXNzPSJzdDEiIGQ9Ik0zIDMuOTlMMCA2LjQydjcuMTNsMyAyLjQ0eiIvPiYjeGE7CTxwYXRoIGNsYXNzPSJzdDAiIGQ9Ik0zIDMuOTlsLTMgNCAzLTJ6bS0zIDhsMyA0di0yeiIvPiYjeGE7CTxwYXRoIGNsYXNzPSJzdDIiIGQ9Ik0wIDE1Ljk5bDQgNCAyLTItNi02em0uMDEtOEw1Ljk5IDJsLTItMkwwIDMuOTl6Ii8+JiN4YTsJPHBhdGggY2xhc3M9InN0MSIgZD0iTTE3IDE2bDMtMi40MlY2LjQ0TDE3IDR6Ii8+JiN4YTsJPHBhdGggY2xhc3M9InN0MCIgZD0iTTE3IDE2bDMtNC0zIDJ6bTMtOGwtMy00djJ6Ii8+JiN4YTsJPGcgY2xhc3M9InN0MiI+JiN4YTsJCTxwYXRoIGQ9Ik0yMCA0bC00LTQtMiAyIDYgNnptLS4wMSA4bC01Ljk4IDUuOTkgMiAyTDIwIDE2eiIvPiYjeGE7CQk8Y2lyY2xlIGN4PSI2IiBjeT0iOS45OSIgcj0iMSIvPiYjeGE7CQk8Y2lyY2xlIGN4PSIxMCIgY3k9IjkuOTkiIHI9IjEiLz4mI3hhOwkJPGNpcmNsZSBjeD0iMTMuOTkiIGN5PSI5Ljk5IiByPSIxIi8+JiN4YTsJPC9nPiYjeGE7PC9zdmc+;" vertex="1" parent="XduflBNYK7NZJnCAo_Pn-49">
          <mxGeometry width="30" height="24" relative="1" as="geometry">
            <mxPoint x="15" y="18" as="offset" />
          </mxGeometry>
        </mxCell>
        <UserObject label="" tags="Arrows predictions-resources" id="XduflBNYK7NZJnCAo_Pn-51">
          <mxCell style="edgeStyle=orthogonalEdgeStyle;fontSize=12;html=1;endArrow=blockThin;endFill=1;rounded=0;strokeWidth=2;endSize=4;startSize=4;dashed=1;dashPattern=1 3;strokeColor=#4284F3;exitX=1;exitY=0.5;exitDx=0;exitDy=0;entryX=0;entryY=0.5;entryDx=0;entryDy=0;" edge="1" parent="XduflBNYK7NZJnCAo_Pn-48" source="XduflBNYK7NZJnCAo_Pn-38" target="XduflBNYK7NZJnCAo_Pn-49">
            <mxGeometry width="100" relative="1" as="geometry">
              <mxPoint x="650" y="379.5" as="sourcePoint" />
              <mxPoint x="750" y="379.5" as="targetPoint" />
            </mxGeometry>
          </mxCell>
        </UserObject>
        <UserObject label="User" tags="external predictions-resources" id="XduflBNYK7NZJnCAo_Pn-54">
          <mxCell style="rounded=1;whiteSpace=wrap;html=1;fontStyle=1;align=center;textDirection=ltr;imageWidth=24;absoluteArcSize=0;" vertex="1" parent="XduflBNYK7NZJnCAo_Pn-48">
            <mxGeometry x="1206" y="352" width="106" height="49" as="geometry" />
          </mxCell>
        </UserObject>
        <UserObject label="" tags="Arrows predictions-resources" id="XduflBNYK7NZJnCAo_Pn-56">
          <mxCell style="edgeStyle=orthogonalEdgeStyle;fontSize=12;html=1;endArrow=blockThin;endFill=1;rounded=0;strokeWidth=2;endSize=4;startSize=4;dashed=0;strokeColor=#9E9E9E;entryX=1;entryY=0.65;entryDx=0;entryDy=0;entryPerimeter=0;exitX=0;exitY=0.75;exitDx=0;exitDy=0;" edge="1" parent="XduflBNYK7NZJnCAo_Pn-48" source="XduflBNYK7NZJnCAo_Pn-54" target="XduflBNYK7NZJnCAo_Pn-49">
            <mxGeometry width="100" relative="1" as="geometry">
              <mxPoint x="1130" y="460" as="sourcePoint" />
              <mxPoint x="1230" y="460" as="targetPoint" />
            </mxGeometry>
          </mxCell>
        </UserObject>
        <UserObject label="" tags="Arrows predictions-resources" id="XduflBNYK7NZJnCAo_Pn-57">
          <mxCell style="edgeStyle=orthogonalEdgeStyle;fontSize=12;html=1;endArrow=blockThin;endFill=1;rounded=0;strokeWidth=2;endSize=4;startSize=4;strokeColor=#34A853;dashed=0;entryX=0;entryY=0.25;entryDx=0;entryDy=0;exitX=1;exitY=0.25;exitDx=0;exitDy=0;" edge="1" parent="XduflBNYK7NZJnCAo_Pn-48" source="XduflBNYK7NZJnCAo_Pn-49" target="XduflBNYK7NZJnCAo_Pn-54">
            <mxGeometry width="100" relative="1" as="geometry">
              <mxPoint x="1170" y="330" as="sourcePoint" />
              <mxPoint x="830" y="320" as="targetPoint" />
            </mxGeometry>
          </mxCell>
        </UserObject>
        <object label="Steps Numbers" id="XduflBNYK7NZJnCAo_Pn-23">
          <mxCell style="" parent="0" />
        </object>
        <UserObject label="1" tags="hints hints-arrows-ingestion ingestion-resources" id="XduflBNYK7NZJnCAo_Pn-24">
          <mxCell style="ellipse;whiteSpace=wrap;html=1;aspect=fixed;align=center;verticalAlign=middle;fillColor=#b1ddf0;strokeColor=#10739e;fontStyle=1" vertex="1" parent="XduflBNYK7NZJnCAo_Pn-23">
            <mxGeometry x="297" y="18" width="23" height="23" as="geometry" />
          </mxCell>
        </UserObject>
        <UserObject label="2" tags="hints hints-arrows-ingestion ingestion-resources" id="XduflBNYK7NZJnCAo_Pn-26">
          <mxCell style="ellipse;whiteSpace=wrap;html=1;aspect=fixed;align=center;verticalAlign=middle;fillColor=#b1ddf0;strokeColor=#10739e;fontStyle=1" vertex="1" parent="XduflBNYK7NZJnCAo_Pn-23">
            <mxGeometry x="650" y="18" width="23" height="23" as="geometry" />
          </mxCell>
        </UserObject>
        <UserObject label="3" tags="hints hints-arrows-ingestion ingestion-resources" id="XduflBNYK7NZJnCAo_Pn-27">
          <mxCell style="ellipse;whiteSpace=wrap;html=1;aspect=fixed;align=center;verticalAlign=middle;fillColor=#b1ddf0;strokeColor=#10739e;fontStyle=1" vertex="1" parent="XduflBNYK7NZJnCAo_Pn-23">
            <mxGeometry x="504" y="109" width="23" height="23" as="geometry" />
          </mxCell>
        </UserObject>
        <UserObject label="4" tags="hints" id="XduflBNYK7NZJnCAo_Pn-28">
          <mxCell style="ellipse;whiteSpace=wrap;html=1;aspect=fixed;align=center;verticalAlign=middle;fillColor=#b1ddf0;strokeColor=#10739e;fontStyle=1" vertex="1" parent="XduflBNYK7NZJnCAo_Pn-23">
            <mxGeometry x="650" y="180" width="23" height="23" as="geometry" />
          </mxCell>
        </UserObject>
        <UserObject label="5" tags="hints" id="XduflBNYK7NZJnCAo_Pn-29">
          <mxCell style="ellipse;whiteSpace=wrap;html=1;aspect=fixed;align=center;verticalAlign=middle;fillColor=#b1ddf0;strokeColor=#10739e;fontStyle=1" vertex="1" parent="XduflBNYK7NZJnCAo_Pn-23">
            <mxGeometry x="767" y="114" width="23" height="23" as="geometry" />
          </mxCell>
        </UserObject>
        <UserObject label="6" tags="hints" id="XduflBNYK7NZJnCAo_Pn-41">
          <mxCell style="ellipse;whiteSpace=wrap;html=1;aspect=fixed;align=center;verticalAlign=middle;fillColor=#b1ddf0;strokeColor=#10739e;fontStyle=1" vertex="1" parent="XduflBNYK7NZJnCAo_Pn-23">
            <mxGeometry x="769" y="244" width="23" height="23" as="geometry" />
          </mxCell>
        </UserObject>
        <UserObject label="12" tags="hints predictions-resources" id="XduflBNYK7NZJnCAo_Pn-58">
          <mxCell style="ellipse;whiteSpace=wrap;html=1;aspect=fixed;align=center;verticalAlign=middle;fillColor=#b1ddf0;strokeColor=#10739e;fontStyle=1" vertex="1" parent="XduflBNYK7NZJnCAo_Pn-23">
            <mxGeometry x="840" y="370" width="23" height="23" as="geometry" />
          </mxCell>
        </UserObject>
        <UserObject label="11" tags="hints predictions-resources" id="XduflBNYK7NZJnCAo_Pn-59">
          <mxCell style="ellipse;whiteSpace=wrap;html=1;aspect=fixed;align=center;verticalAlign=middle;fillColor=#b1ddf0;strokeColor=#10739e;fontStyle=1" vertex="1" parent="XduflBNYK7NZJnCAo_Pn-23">
            <mxGeometry x="1150" y="380" width="23" height="23" as="geometry" />
          </mxCell>
        </UserObject>
        <UserObject label="14" tags="hints predictions-resources" id="XduflBNYK7NZJnCAo_Pn-60">
          <mxCell style="ellipse;whiteSpace=wrap;html=1;aspect=fixed;align=center;verticalAlign=middle;fillColor=#b1ddf0;strokeColor=#10739e;fontStyle=1" vertex="1" parent="XduflBNYK7NZJnCAo_Pn-23">
            <mxGeometry x="1150" y="347" width="23" height="23" as="geometry" />
          </mxCell>
        </UserObject>
        <UserObject label="" tags="Arrows predictions-resources" id="XduflBNYK7NZJnCAo_Pn-61">
          <mxCell style="edgeStyle=orthogonalEdgeStyle;fontSize=12;html=1;endArrow=blockThin;endFill=1;rounded=0;strokeWidth=2;endSize=4;startSize=4;dashed=1;dashPattern=1 3;strokeColor=#4284F3;entryX=0.5;entryY=1;entryDx=0;entryDy=0;exitX=0.5;exitY=0;exitDx=0;exitDy=0;" edge="1" parent="XduflBNYK7NZJnCAo_Pn-23" source="XduflBNYK7NZJnCAo_Pn-49" target="XduflBNYK7NZJnCAo_Pn-46">
            <mxGeometry width="100" relative="1" as="geometry">
              <mxPoint x="800" y="330" as="sourcePoint" />
              <mxPoint x="900" y="330" as="targetPoint" />
            </mxGeometry>
          </mxCell>
        </UserObject>
        <UserObject label="13" tags="hints predictions-resources" id="XduflBNYK7NZJnCAo_Pn-62">
          <mxCell style="ellipse;whiteSpace=wrap;html=1;aspect=fixed;align=center;verticalAlign=middle;fillColor=#b1ddf0;strokeColor=#10739e;fontStyle=1" vertex="1" parent="XduflBNYK7NZJnCAo_Pn-23">
            <mxGeometry x="972" y="286" width="23" height="23" as="geometry" />
          </mxCell>
        </UserObject>
      </root>
    </mxGraphModel>
  </diagram>
</mxfile>
